<?xml version="1.0" encoding="utf-8"?>
<!-- Generator: Adobe Illustrator 27.1.0, SVG Export Plug-In . SVG Version: 6.00 Build 0)  -->
<svg version="1.1" id="Layer_1" xmlns="http://www.w3.org/2000/svg" xmlns:xlink="http://www.w3.org/1999/xlink" x="0px" y="0px"
	 viewBox="0 0 489.1 672.4" style="enable-background:new 0 0 489.1 672.4;" xml:space="preserve">
<style type="text/css">
	.st0{fill:none;stroke:#FFFFFF;stroke-width:2;stroke-miterlimit:10;}
	.st1{fill:none;stroke:#FFFFFF;stroke-width:2;stroke-linejoin:bevel;}
</style>
<g id="Poly_stroke_and_fill">
	<polygon class="st0" points="338.9,654.5 292.7,559.8 289.8,672.4 	"/>
	<polygon class="st0" points="292.7,559.8 268.1,482.3 169.4,540.1 	"/>
	<polygon class="st0" points="289.8,672.4 228.8,672.4 218.6,607.8 	"/>
	<polygon class="st0" points="218.6,607.8 292.7,559.8 289.8,672.4 	"/>
	<polygon class="st0" points="228.8,672.4 170.6,654.5 218.6,607.8 	"/>
	<polygon class="st0" points="218.6,607.8 169.4,540.1 292.7,559.8 	"/>
	<polygon class="st0" points="170.6,654.5 95.9,585.1 218.6,607.8 	"/>
	<polygon class="st0" points="169.4,540.1 95.9,585.1 218.6,607.8 	"/>
	<polygon class="st0" points="95.9,585.1 61.2,504.9 169.4,540.1 	"/>
	<polygon class="st0" points="61.2,504.9 3.3,436.7 56.7,391.2 	"/>
	<polygon class="st0" points="56.7,391.2 30.2,342 0,391.2 	"/>
	<polygon class="st0" points="0,391.2 3.3,436.7 56.7,391.2 	"/>
	<polygon class="st0" points="463.7,332.1 440.3,391.2 489.1,391.2 	"/>
	<polygon class="st0" points="489.1,391.2 477.3,451.1 440.3,391.2 	"/>
	<polygon class="st0" points="440.3,496.7 477.3,451.1 440.3,391.2 	"/>
	<polygon class="st0" points="440.3,496.7 409.4,585.1 370.3,536.7 	"/>
	<polygon class="st0" points="409.4,585.1 292.7,559.8 370.3,536.7 	"/>
	<polygon class="st0" points="61.2,504.9 150.1,451.6 169.4,540.1 	"/>
	<polygon class="st0" points="56.7,391.2 150.1,451.6 61.2,504.9 	"/>
	<polygon class="st0" points="56.7,391.2 123.3,328.8 58.7,287 	"/>
	<polygon class="st0" points="83.5,196.4 104.1,261.7 58.7,287 	"/>
	<polygon class="st0" points="118.7,165.8 104.1,261.7 83.5,196.4 	"/>
	<polygon class="st0" points="104.1,261.7 118.5,165.2 190.6,229.1 	"/>
	<polygon class="st0" points="218.6,143.6 118.7,165.8 190.6,229.1 	"/>
	<polygon class="st0" points="348.1,150.4 218.6,143.6 304,198.8 	"/>
	<polygon class="st0" points="417.7,188.9 348.1,150.4 356.6,203.7 	"/>
	<polygon class="st0" points="429.9,229.9 417.7,188.9 356.6,203.7 	"/>
	<polygon class="st0" points="437.7,292.4 429.9,229.9 361.4,288.7 	"/>
	<polygon class="st0" points="348.1,150.4 304,198.8 356.6,203.7 	"/>
	<polygon class="st0" points="356.6,203.7 361.4,288.7 429.9,229.9 	"/>
	<polygon class="st0" points="104.1,261.7 58.7,287 123.3,328.8 	"/>
	<polygon class="st0" points="123.3,328.8 104.1,261.7 190.6,229.1 	"/>
	<polygon class="st0" points="190.6,229.1 304,198.8 218.6,143.6 	"/>
	<polygon class="st0" points="440.3,391.2 440.3,496.7 356,467.3 	"/>
	<polygon class="st0" points="356,467.3 370.3,536.7 440.3,496.7 	"/>
	<polygon class="st0" points="268.1,482.3 292.7,559.8 356,467.3 	"/>
	<polygon class="st0" points="292.7,559.8 370.3,536.7 356,467.3 	"/>
	<polygon class="st0" points="292.7,559.8 338.9,654.5 409.4,585.1 	"/>
	<polygon class="st0" points="440.3,391.2 338.9,354.6 356,467.3 	"/>
	<polygon class="st0" points="56.7,391.2 176.2,391.2 123.3,328.8 	"/>
	<polygon class="st0" points="437.7,292.4 338.9,354.6 440.3,391.2 	"/>
	<polygon class="st0" points="123.3,328.8 218.6,341.8 190.6,229.1 	"/>
	<polygon class="st0" points="190.6,229.1 297.3,246.2 304,198.8 	"/>
	<polygon class="st0" points="297.3,246.2 356.6,203.7 304,198.8 	"/>
	<polygon class="st0" points="297.3,246.2 218.6,341.8 190.6,229.1 	"/>
	<polygon class="st0" points="297.3,246.2 361.4,288.7 356.6,203.7 	"/>
	<polygon class="st0" points="176.2,391.2 150.1,451.6 56.7,391.2 	"/>
	<polygon class="st0" points="123.3,328.8 218.6,341.8 176.2,391.2 	"/>
	<polygon class="st0" points="361.4,288.7 338.9,354.6 437.7,292.4 	"/>
	<polygon class="st0" points="297.3,246.2 338.9,354.6 361.4,288.7 	"/>
	<polygon class="st0" points="218.6,341.8 338.9,354.6 297.3,246.2 	"/>
	<polygon class="st0" points="169.5,540.4 268.1,482.2 150.1,451.4 	"/>
	<polygon class="st0" points="176.2,391.2 268.1,482.3 150.1,451.6 	"/>
	<polygon class="st0" points="218.6,341.8 279.9,399.4 338.9,354.6 	"/>
	<polygon class="st0" points="279.9,399.4 268.1,482.3 356,467.3 	"/>
	<polygon class="st0" points="338.9,354.6 279.9,399.4 356,467.3 	"/>
	<polygon class="st0" points="176.2,391.2 279.9,399.4 268.1,482.3 	"/>
	<polygon class="st0" points="176.2,391.2 218.6,341.8 279.9,399.4 	"/>
	<polygon class="st0" points="268.1,482.3 292.7,559.8 169.4,540.1 	"/>
</g>
<g id="Poly_hair_strok_and_fill">
	<polygon class="st0" points="213.3,51.4 118,165.8 218.6,143.6 	"/>
	<polygon class="st0" points="246.5,58.6 348.1,150.4 218.6,143.6 	"/>
	<polygon class="st0" points="300.6,51.4 348.1,150.4 384.6,77.7 	"/>
	<polygon class="st0" points="371,30.3 300.6,51.4 384.6,77.7 	"/>
	<polygon class="st0" points="384.6,77.7 417.7,188.9 348.1,150.4 	"/>
	<polygon class="st0" points="426.1,64.2 417.7,188.9 384.6,77.7 	"/>
	<polygon class="st0" points="446.1,49.1 426.1,64.2 462.2,121.4 	"/>
	<polygon class="st0" points="417.7,188.9 462.2,121.4 426.1,64.2 	"/>
	<polygon class="st0" points="429.9,229.9 466.7,182.6 417.7,188.9 	"/>
	<polygon class="st0" points="466.7,182.6 462.2,121.4 417.7,188.9 	"/>
	<polygon class="st0" points="429.9,229.9 437.7,292.4 466.7,229.1 	"/>
	<polygon class="st0" points="466.7,229.1 466.7,182.6 429.9,229.9 	"/>
	<polygon class="st0" points="437.7,292.4 463.7,332.1 440.3,391.2 	"/>
	<polygon class="st0" points="463.7,332.1 466.7,229.1 437.7,292.4 	"/>
	<polygon class="st0" points="56.7,391.2 30.2,342 58.7,287 	"/>
	<polygon class="st0" points="58.7,287 31.9,252.8 30.2,342 	"/>
	<polygon class="st0" points="31.9,252.8 83.5,196.4 58.7,287 	"/>
	<polygon class="st0" points="52.3,168.6 83.5,196.4 31.9,252.8 	"/>
	<polygon class="st0" points="97.2,105.3 83.5,196.4 52.3,168.6 	"/>
	<polygon class="st0" points="83.5,196.4 118.7,165.8 97.2,105.3 	"/>
	<polygon class="st0" points="118.7,165.8 213.3,51.4 97.2,105.3 	"/>
	<polygon class="st0" points="213.3,51.4 246.5,58.6 235.4,28.8 	"/>
	<polygon class="st0" points="371,30.3 348.2,0 300.6,51.4 	"/>
	<polygon class="st0" points="300.6,51.4 246.5,58.6 348.1,150.4 	"/>
	<polygon class="st0" points="213.3,51.4 246.5,58.6 218.6,143.6 	"/>
	<path class="st1" d="M101.8,378.3"/>
</g>
</svg>
